<svg width="76" height="28" viewBox="0 0 76 28" fill="none" xmlns="http://www.w3.org/2000/svg">
<path d="M30.3352 14.1648V18H28.7926V11.4545H30.267V12.5668H30.3438C30.4943 12.2003 30.7344 11.9091 31.0639 11.6932C31.3963 11.4773 31.8068 11.3693 32.2955 11.3693C32.7472 11.3693 33.1406 11.4659 33.4759 11.6591C33.8139 11.8523 34.0753 12.1321 34.2599 12.4986C34.4474 12.8651 34.5398 13.3097 34.5369 13.8324V18H32.9943V14.071C32.9943 13.6335 32.8807 13.2912 32.6534 13.044C32.429 12.7969 32.1179 12.6733 31.7202 12.6733C31.4503 12.6733 31.2102 12.733 31 12.8523C30.7926 12.9687 30.6293 13.1378 30.5099 13.3594C30.3935 13.581 30.3352 13.8494 30.3352 14.1648ZM36.8295 20.4545C36.6193 20.4545 36.4247 20.4375 36.2457 20.4034C36.0696 20.3722 35.929 20.3352 35.8239 20.2926L36.1818 19.0909C36.4063 19.1563 36.6065 19.1875 36.7827 19.1847C36.9588 19.1818 37.1136 19.1264 37.2472 19.0185C37.3835 18.9134 37.4986 18.7372 37.5923 18.4901L37.7244 18.1364L35.3509 11.4545H36.9872L38.4957 16.3977H38.5639L40.0767 11.4545H41.7173L39.0966 18.7926C38.9744 19.1392 38.8125 19.4361 38.6108 19.6832C38.4091 19.9332 38.1619 20.1236 37.8693 20.2543C37.5795 20.3878 37.233 20.4545 36.8295 20.4545ZM44.3274 9.27273V18H42.7848V9.27273H44.3274ZM47.7972 18.1321C47.3825 18.1321 47.0089 18.0582 46.6765 17.9105C46.3469 17.7599 46.0856 17.5384 45.8924 17.2457C45.7021 16.9531 45.6069 16.5923 45.6069 16.1634C45.6069 15.794 45.6751 15.4886 45.8114 15.2472C45.9478 15.0057 46.1339 14.8125 46.3697 14.6676C46.6055 14.5227 46.8711 14.4134 47.1665 14.3395C47.4648 14.2628 47.7731 14.2074 48.0913 14.1733C48.4748 14.1335 48.7859 14.098 49.0245 14.0668C49.2631 14.0327 49.4364 13.9815 49.5444 13.9134C49.6552 13.8423 49.7106 13.733 49.7106 13.5852V13.5597C49.7106 13.2386 49.6154 12.9901 49.4251 12.8139C49.2347 12.6378 48.9606 12.5497 48.6026 12.5497C48.2248 12.5497 47.9251 12.6321 47.7035 12.7969C47.4847 12.9616 47.337 13.1562 47.2603 13.3807L45.82 13.1761C45.9336 12.7784 46.1211 12.446 46.3825 12.179C46.6438 11.9091 46.9634 11.7074 47.3413 11.5739C47.7191 11.4375 48.1367 11.3693 48.5941 11.3693C48.9094 11.3693 49.2234 11.4062 49.5359 11.4801C49.8484 11.554 50.1339 11.6761 50.3924 11.8466C50.6509 12.0142 50.8583 12.2429 51.0146 12.5327C51.1737 12.8224 51.2532 13.1847 51.2532 13.6193V18H49.7702V17.1009H49.7191C49.6254 17.2827 49.4933 17.4531 49.3228 17.6122C49.1552 17.7685 48.9435 17.8949 48.6879 17.9915C48.435 18.0852 48.1381 18.1321 47.7972 18.1321ZM48.1978 16.9986C48.5075 16.9986 48.7759 16.9375 49.0032 16.8153C49.2305 16.6903 49.4052 16.5256 49.5273 16.321C49.6523 16.1165 49.7148 15.8935 49.7148 15.652V14.8807C49.6665 14.9205 49.5842 14.9574 49.4677 14.9915C49.354 15.0256 49.2262 15.0554 49.0842 15.081C48.9421 15.1065 48.8015 15.1293 48.6623 15.1491C48.5231 15.169 48.4023 15.1861 48.3001 15.2003C48.07 15.2315 47.864 15.2827 47.6822 15.3537C47.5004 15.4247 47.3569 15.5241 47.2518 15.652C47.1467 15.777 47.0941 15.9389 47.0941 16.1378C47.0941 16.4219 47.1978 16.6364 47.4052 16.7812C47.6126 16.9261 47.8768 16.9986 48.1978 16.9986ZM57.9776 13.1847L56.5714 13.3381C56.5316 13.196 56.462 13.0625 56.3626 12.9375C56.266 12.8125 56.1353 12.7116 55.9705 12.6349C55.8058 12.5582 55.604 12.5199 55.3654 12.5199C55.0444 12.5199 54.7745 12.5895 54.5558 12.7287C54.3398 12.8679 54.2333 13.0483 54.2362 13.2699C54.2333 13.4602 54.3029 13.6151 54.445 13.7344C54.5898 13.8537 54.8285 13.9517 55.1609 14.0284L56.2773 14.267C56.8967 14.4006 57.3569 14.6122 57.658 14.902C57.962 15.1918 58.1154 15.571 58.1183 16.0398C58.1154 16.4517 57.9947 16.8153 57.756 17.1307C57.5202 17.4432 57.1921 17.6875 56.7717 17.8636C56.3512 18.0398 55.8683 18.1278 55.3228 18.1278C54.5217 18.1278 53.8768 17.9602 53.3881 17.625C52.8995 17.2869 52.6083 16.8168 52.5146 16.2145L54.0188 16.0696C54.087 16.3651 54.2319 16.5881 54.4535 16.7386C54.6751 16.8892 54.9634 16.9645 55.3185 16.9645C55.685 16.9645 55.979 16.8892 56.2006 16.7386C56.4251 16.5881 56.5373 16.402 56.5373 16.1804C56.5373 15.9929 56.4648 15.8381 56.32 15.7159C56.1779 15.5937 55.9563 15.5 55.6552 15.4347L54.5387 15.2003C53.9109 15.0696 53.4464 14.8494 53.1452 14.5398C52.8441 14.2273 52.695 13.8324 52.6978 13.3551C52.695 12.9517 52.8043 12.6023 53.0259 12.3068C53.2504 12.0085 53.5614 11.7784 53.9592 11.6165C54.3597 11.4517 54.8214 11.3693 55.3441 11.3693C56.1112 11.3693 56.7148 11.5327 57.1552 11.8594C57.5984 12.1861 57.8725 12.6278 57.9776 13.1847ZM62.9528 8.86364L60.1403 19.3125H58.7894L61.6019 8.86364H62.9528ZM65.1261 18H63.4386L66.511 9.27273H68.4627L71.5394 18H69.8519L67.521 11.0625H67.4528L65.1261 18ZM65.1815 14.5781H69.7837V15.848H65.1815V14.5781ZM74.2699 9.27273V18H72.6889V9.27273H74.2699Z" fill="#4169E1"/>
<path d="M21 9.33337C22.933 9.33337 24.5 7.76637 24.5 5.83337C24.5 3.90038 22.933 2.33337 21 2.33337C19.067 2.33337 17.5 3.90038 17.5 5.83337C17.5 7.76637 19.067 9.33337 21 9.33337Z" stroke="#4169E1" stroke-width="2.5" stroke-linecap="round" stroke-linejoin="round"/>
<path d="M7 17.5C8.933 17.5 10.5 15.933 10.5 14C10.5 12.067 8.933 10.5 7 10.5C5.067 10.5 3.5 12.067 3.5 14C3.5 15.933 5.067 17.5 7 17.5Z" stroke="#4169E1" stroke-width="2.5" stroke-linecap="round" stroke-linejoin="round"/>
<path d="M21 25.6666C22.933 25.6666 24.5 24.0996 24.5 22.1666C24.5 20.2336 22.933 18.6666 21 18.6666C19.067 18.6666 17.5 20.2336 17.5 22.1666C17.5 24.0996 19.067 25.6666 21 25.6666Z" stroke="#4169E1" stroke-width="2.5" stroke-linecap="round" stroke-linejoin="round"/>
<path d="M10.0234 15.7617L17.9918 20.4051" stroke="#4169E1" stroke-width="2.5" stroke-linecap="round" stroke-linejoin="round"/>
<path d="M17.9801 7.59497L10.0234 12.2383" stroke="#4169E1" stroke-width="2.5" stroke-linecap="round" stroke-linejoin="round"/>
</svg>
